<mxfile host="app.diagrams.net" modified="2023-04-06T21:07:16.927Z" agent="Mozilla/5.0 (Windows NT 10.0; Win64; x64; rv:109.0) Gecko/20100101 Firefox/111.0" etag="Kq1E7LbJgsldbSIdn7n1" version="21.1.4" type="device">
  <diagram id="BArOkTPD_072SSl6reVw" name="Page-1">
    <mxGraphModel dx="2074" dy="1274" grid="1" gridSize="10" guides="1" tooltips="1" connect="1" arrows="1" fold="1" page="1" pageScale="1" pageWidth="850" pageHeight="1100" math="0" shadow="0">
      <root>
        <mxCell id="0" />
        <mxCell id="1" parent="0" />
        <mxCell id="x6ZUfxJSD3Wm-bqrK3wU-49" style="edgeStyle=orthogonalEdgeStyle;rounded=0;orthogonalLoop=1;jettySize=auto;html=1;entryX=0;entryY=0.5;entryDx=0;entryDy=0;" parent="1" source="x6ZUfxJSD3Wm-bqrK3wU-1" target="x6ZUfxJSD3Wm-bqrK3wU-2" edge="1">
          <mxGeometry relative="1" as="geometry" />
        </mxCell>
        <mxCell id="x6ZUfxJSD3Wm-bqrK3wU-1" value="Concept" style="rounded=0;whiteSpace=wrap;html=1;fontStyle=1" parent="1" vertex="1">
          <mxGeometry x="15" y="200" width="120" height="60" as="geometry" />
        </mxCell>
        <mxCell id="x6ZUfxJSD3Wm-bqrK3wU-13" value="" style="edgeStyle=orthogonalEdgeStyle;rounded=0;orthogonalLoop=1;jettySize=auto;html=1;" parent="1" source="x6ZUfxJSD3Wm-bqrK3wU-1" target="x6ZUfxJSD3Wm-bqrK3wU-12" edge="1">
          <mxGeometry relative="1" as="geometry" />
        </mxCell>
        <mxCell id="x6ZUfxJSD3Wm-bqrK3wU-62" style="edgeStyle=orthogonalEdgeStyle;rounded=0;orthogonalLoop=1;jettySize=auto;html=1;exitX=0.5;exitY=1;exitDx=0;exitDy=0;entryX=0;entryY=0.5;entryDx=0;entryDy=0;" parent="1" source="x6ZUfxJSD3Wm-bqrK3wU-12" target="x6ZUfxJSD3Wm-bqrK3wU-41" edge="1">
          <mxGeometry relative="1" as="geometry" />
        </mxCell>
        <mxCell id="x6ZUfxJSD3Wm-bqrK3wU-12" value="MTP" style="rounded=0;whiteSpace=wrap;html=1;fontStyle=1;" parent="1" vertex="1">
          <mxGeometry x="15" y="300" width="120" height="60" as="geometry" />
        </mxCell>
        <mxCell id="x6ZUfxJSD3Wm-bqrK3wU-56" style="edgeStyle=orthogonalEdgeStyle;rounded=0;orthogonalLoop=1;jettySize=auto;html=1;exitX=0.5;exitY=1;exitDx=0;exitDy=0;entryX=0.5;entryY=0;entryDx=0;entryDy=0;" parent="1" source="x6ZUfxJSD3Wm-bqrK3wU-2" target="x6ZUfxJSD3Wm-bqrK3wU-39" edge="1">
          <mxGeometry relative="1" as="geometry" />
        </mxCell>
        <mxCell id="x6ZUfxJSD3Wm-bqrK3wU-57" style="edgeStyle=orthogonalEdgeStyle;rounded=0;orthogonalLoop=1;jettySize=auto;html=1;exitX=0.5;exitY=1;exitDx=0;exitDy=0;entryX=0.5;entryY=0;entryDx=0;entryDy=0;" parent="1" source="x6ZUfxJSD3Wm-bqrK3wU-2" target="x6ZUfxJSD3Wm-bqrK3wU-23" edge="1">
          <mxGeometry relative="1" as="geometry" />
        </mxCell>
        <mxCell id="x6ZUfxJSD3Wm-bqrK3wU-59" value="" style="edgeStyle=orthogonalEdgeStyle;rounded=0;orthogonalLoop=1;jettySize=auto;html=1;" parent="1" source="x6ZUfxJSD3Wm-bqrK3wU-2" target="x6ZUfxJSD3Wm-bqrK3wU-15" edge="1">
          <mxGeometry relative="1" as="geometry" />
        </mxCell>
        <mxCell id="x6ZUfxJSD3Wm-bqrK3wU-2" value="SRS" style="rounded=0;whiteSpace=wrap;html=1;fontStyle=1" parent="1" vertex="1">
          <mxGeometry x="225" y="200" width="120" height="60" as="geometry" />
        </mxCell>
        <mxCell id="x6ZUfxJSD3Wm-bqrK3wU-52" style="edgeStyle=orthogonalEdgeStyle;rounded=0;orthogonalLoop=1;jettySize=auto;html=1;exitX=0.5;exitY=1;exitDx=0;exitDy=0;entryX=0.5;entryY=0;entryDx=0;entryDy=0;" parent="1" source="x6ZUfxJSD3Wm-bqrK3wU-23" target="x6ZUfxJSD3Wm-bqrK3wU-41" edge="1">
          <mxGeometry relative="1" as="geometry" />
        </mxCell>
        <mxCell id="x6ZUfxJSD3Wm-bqrK3wU-23" value="System Test Plan" style="rounded=0;whiteSpace=wrap;html=1;fontStyle=1;fillColor=#e1d5e7;strokeColor=#9673a6;" parent="1" vertex="1">
          <mxGeometry x="295" y="300" width="120" height="60" as="geometry" />
        </mxCell>
        <mxCell id="x6ZUfxJSD3Wm-bqrK3wU-55" value="" style="edgeStyle=orthogonalEdgeStyle;rounded=0;orthogonalLoop=1;jettySize=auto;html=1;" parent="1" source="x6ZUfxJSD3Wm-bqrK3wU-15" target="x6ZUfxJSD3Wm-bqrK3wU-35" edge="1">
          <mxGeometry relative="1" as="geometry" />
        </mxCell>
        <mxCell id="x6ZUfxJSD3Wm-bqrK3wU-60" value="" style="edgeStyle=orthogonalEdgeStyle;rounded=0;orthogonalLoop=1;jettySize=auto;html=1;" parent="1" source="x6ZUfxJSD3Wm-bqrK3wU-15" target="x6ZUfxJSD3Wm-bqrK3wU-17" edge="1">
          <mxGeometry relative="1" as="geometry" />
        </mxCell>
        <mxCell id="x6ZUfxJSD3Wm-bqrK3wU-15" value="MG" style="rounded=0;whiteSpace=wrap;html=1;fontStyle=1" parent="1" vertex="1">
          <mxGeometry x="435" y="200" width="120" height="60" as="geometry" />
        </mxCell>
        <mxCell id="x6ZUfxJSD3Wm-bqrK3wU-54" value="" style="edgeStyle=orthogonalEdgeStyle;rounded=0;orthogonalLoop=1;jettySize=auto;html=1;" parent="1" source="x6ZUfxJSD3Wm-bqrK3wU-17" target="x6ZUfxJSD3Wm-bqrK3wU-36" edge="1">
          <mxGeometry relative="1" as="geometry" />
        </mxCell>
        <mxCell id="x6ZUfxJSD3Wm-bqrK3wU-58" value="" style="edgeStyle=orthogonalEdgeStyle;rounded=0;orthogonalLoop=1;jettySize=auto;html=1;" parent="1" source="x6ZUfxJSD3Wm-bqrK3wU-17" target="x6ZUfxJSD3Wm-bqrK3wU-16" edge="1">
          <mxGeometry relative="1" as="geometry" />
        </mxCell>
        <mxCell id="x6ZUfxJSD3Wm-bqrK3wU-17" value="MIS" style="rounded=0;whiteSpace=wrap;html=1;fontStyle=1" parent="1" vertex="1">
          <mxGeometry x="575" y="200" width="120" height="60" as="geometry" />
        </mxCell>
        <mxCell id="x6ZUfxJSD3Wm-bqrK3wU-61" style="edgeStyle=orthogonalEdgeStyle;rounded=0;orthogonalLoop=1;jettySize=auto;html=1;entryX=1;entryY=0.5;entryDx=0;entryDy=0;exitX=0.5;exitY=1;exitDx=0;exitDy=0;" parent="1" source="x6ZUfxJSD3Wm-bqrK3wU-16" target="x6ZUfxJSD3Wm-bqrK3wU-41" edge="1">
          <mxGeometry relative="1" as="geometry" />
        </mxCell>
        <mxCell id="x6ZUfxJSD3Wm-bqrK3wU-16" value="Source Code and Source Code Documentation" style="rounded=0;whiteSpace=wrap;html=1;fontStyle=1" parent="1" vertex="1">
          <mxGeometry x="715" y="200" width="120" height="60" as="geometry" />
        </mxCell>
        <mxCell id="x6ZUfxJSD3Wm-bqrK3wU-51" style="edgeStyle=orthogonalEdgeStyle;rounded=0;orthogonalLoop=1;jettySize=auto;html=1;exitX=0.5;exitY=1;exitDx=0;exitDy=0;" parent="1" source="x6ZUfxJSD3Wm-bqrK3wU-35" edge="1">
          <mxGeometry relative="1" as="geometry">
            <mxPoint x="425" y="400" as="targetPoint" />
          </mxGeometry>
        </mxCell>
        <mxCell id="x6ZUfxJSD3Wm-bqrK3wU-35" value="&lt;div&gt;Integration &lt;br&gt;&lt;/div&gt;&lt;div&gt;Test Plan&lt;/div&gt;" style="rounded=0;whiteSpace=wrap;html=1;fontStyle=1;fillColor=#e1d5e7;strokeColor=#9673a6;" parent="1" vertex="1">
          <mxGeometry x="435" y="300" width="120" height="60" as="geometry" />
        </mxCell>
        <mxCell id="x6ZUfxJSD3Wm-bqrK3wU-50" style="edgeStyle=orthogonalEdgeStyle;rounded=0;orthogonalLoop=1;jettySize=auto;html=1;exitX=0.5;exitY=1;exitDx=0;exitDy=0;entryX=0.5;entryY=0;entryDx=0;entryDy=0;" parent="1" source="x6ZUfxJSD3Wm-bqrK3wU-36" target="x6ZUfxJSD3Wm-bqrK3wU-41" edge="1">
          <mxGeometry relative="1" as="geometry" />
        </mxCell>
        <mxCell id="x6ZUfxJSD3Wm-bqrK3wU-36" value="Unit Test Plan" style="rounded=0;whiteSpace=wrap;html=1;fontStyle=1;fillColor=#e1d5e7;strokeColor=#9673a6;" parent="1" vertex="1">
          <mxGeometry x="575" y="300" width="120" height="60" as="geometry" />
        </mxCell>
        <mxCell id="x6ZUfxJSD3Wm-bqrK3wU-53" style="edgeStyle=orthogonalEdgeStyle;rounded=0;orthogonalLoop=1;jettySize=auto;html=1;exitX=0.5;exitY=1;exitDx=0;exitDy=0;" parent="1" source="x6ZUfxJSD3Wm-bqrK3wU-39" target="x6ZUfxJSD3Wm-bqrK3wU-41" edge="1">
          <mxGeometry relative="1" as="geometry" />
        </mxCell>
        <mxCell id="x6ZUfxJSD3Wm-bqrK3wU-39" value="Acceptance Test Plan" style="rounded=0;whiteSpace=wrap;html=1;fontStyle=1" parent="1" vertex="1">
          <mxGeometry x="155" y="300" width="120" height="60" as="geometry" />
        </mxCell>
        <mxCell id="x6ZUfxJSD3Wm-bqrK3wU-41" value="Test Reports" style="rounded=0;whiteSpace=wrap;html=1;fontStyle=1" parent="1" vertex="1">
          <mxGeometry x="365" y="400" width="120" height="60" as="geometry" />
        </mxCell>
      </root>
    </mxGraphModel>
  </diagram>
</mxfile>
